# xmcd CD database file
# Copyright (C) 1996 Ti Kan
#
# Track frame offsets:
# 	150
# 	13240
# 	25560
# 	38180
# 	50990
# 	64285
# 	76230
# 	89012
# 	103020
# 	114620
# 	128045
# 	139902
#
# Disc length: 2019 seconds
#
# Revision: 1
# Processed by: cddbd v1.4b41PL1 Copyright (c) Steve Scherf et al.
# Submitted via: DiscPlay 3.4.1
#
DISCID=a807e10c
DTITLE=Memphis Minnie - I Ain't No Bad Gal
DYEAR=1900
DGENRE=
TTITLE0=You Need A Friend
TTITLE1=Can't Afford To Loose My Man
TTITLE2=Me and My Chauffeur Blues
TTITLE3=Don't Turn the Card
TTITLE4=It Was You, Baby
TTITLE5=Looking the World Over
TTITLE6=I Am Sailin'
TTITLE7=Remember Me Blues
TTITLE8=Down By the Riveside
TTITLE9=I Got To Make A Change Blues
TTITLE10=I'm Not A Bad Gal
TTITLE11=You Got To Get Out Of Here
EXTD=
EXTT0=
EXTT1=
EXTT2=
EXTT3=
EXTT4=
EXTT5=
EXTT6=
EXTT7=
EXTT8=
EXTT9=
EXTT10=
EXTT11=
PLAYORDER=
